<?xml version="1.0" encoding="utf-8"?>
<!-- Generator: Adobe Illustrator 13.0.0, SVG Export Plug-In . SVG Version: 6.00 Build 14576)  -->
<!DOCTYPE svg PUBLIC "-//W3C//DTD SVG 1.0//EN" "http://www.w3.org/TR/2001/REC-SVG-20010904/DTD/svg10.dtd">
<svg version="1.0" xmlns="http://www.w3.org/2000/svg" xmlns:xlink="http://www.w3.org/1999/xlink" x="0px" y="0px" width="842px"
	 height="594.725px" viewBox="0 0 842 594.725" enable-background="new 0 0 842 594.725" xml:space="preserve">
<g id="Background">
	<linearGradient id="SVGID_1_" gradientUnits="userSpaceOnUse" x1="571.5273" y1="72.8687" x2="164.5272" y2="679.8683">
		<stop  offset="0" style="stop-color:#FFFFFF"/>
		<stop  offset="1" style="stop-color:#44C8F5"/>
	</linearGradient>
	<rect fill="url(#SVGID_1_)" width="842" height="594.725"/>
	<path fill="#209CD7" d="M430.067,481.876c0.451-33.473-7.146-67.67-18.071-99.239c-2.57-7.426-6.805-12.619-10.816-19.251
		c-2.585-4.275-5.238-8.615-8.501-12.366c-7.117-8.181-17.383-17.01-26.381-22.966c-9.649-6.387-21.112-10.831-32.722-9.369
		c-6.709,0.845-21.94,5.314-24.016,14.104c-5.405-1.213-11.585,0.987-14.17,6.136c-8.414-3.95-16.435-3.049-24.924,1.187
		c-6.952,3.469-10.359,9.229-10.591,16.888c-0.167,5.537,1.139,5.539-3.271,8.261c-2.643,1.631-5.311,2.12-7.577,4.524
		c-4.061,4.309-5.113,10.473-4.629,16.186c0.141,1.66,3.134,16.023,5.497,15.533c-9.964,2.065-17.49,12.6-11.995,21.02
		c-24.524-3.913-31.035,6.103-36.543,15.116c-7.732-5.353-29.265-3.5-34.554,6.511c-11.146-16.177-42.065-15.524-52.558-3.497
		c-14.546-10.525-38.083,9.005-31.126,24.073c-15.694,8.44-18.474,20.487-16.267,32.853c-4.29,1.196-4.146,1.121-5.797,4.797
		c-9.404-13.358-17.699-22.527-35.27-23.649c-7.881-0.503-17.627,0.674-25.786,4.241v111.759h411.366
		c5.058-7.387,9.159-15.115,11.796-22.833C432.229,545.358,429.695,509.555,430.067,481.876z"/>
	<linearGradient id="SVGID_2_" gradientUnits="userSpaceOnUse" x1="0" y1="465.1562" x2="400.7227" y2="465.1562">
		<stop  offset="0" style="stop-color:#209CD7"/>
		<stop  offset="1" style="stop-color:#44C8F5"/>
	</linearGradient>
	<path fill="url(#SVGID_2_)" d="M373.703,364.382c-13.322-15.988-39.161-41.001-60.798-21.239c-3.5-1.527-7.408-1.902-10.877-0.301
		c-1.601,0.739-2.655,1.323-4.009,2.916c-1.372-0.912-4.726-1.295-6.13-1.429c-4.552-0.433-9.407,2.032-11.197,6.363
		c-0.766,1.853-0.262,4.783-0.088,7.037c-2.899,0.607-4.039,1.59-6.729,2.316c-10.493,2.833-17.369,12.741-18.875,23.157
		c-2.017,13.947,8.536,19.676,9.872,31.095c-8.887-0.127-20.477,6.069-21.872,15.151l-1.221-2.479
		c-2.601-4.161-12.443-2.034-16.114-0.504c-4.86,2.026-9.818,6.68-10.216,12.161c-2.355-0.067-4.911-1.091-7.06,0.709
		c-1.455,1.219-2.526,4.751-0.398,5.793c-7.363-4.147-15.156-7.992-23.835-5.217c-4.938,1.579-16.932,6.021-16.057,12.867
		c-5.08-8.574-17.412-13.14-27.075-13.142c-4.982-0.001-9.877,0.769-14.379,2.88c-1.911,0.896-8.332,3.112-7.831,5.431
		c-4.012-5.072-15.89-5.643-21.042-2.631c-4.209,2.461-11.775,13.434-6.356,17.869c-12.583,2.926-18.942,29.393-12.09,39.469
		c-5.994-1.78-17.185,1.758-17.452,9.426c-4.986-12.152-14.645-19.297-26.795-24.598C19.669,480.76,8.12,482.183,0,488.676v104.205
		c0.521,0.542,1.056,1.067,1.61,1.568h168.493c16.093-1.686,31.799-4.57,46.194-10.004
		c64.844-24.476,151.567-55.471,178.997-125.973C408.503,424.521,396.181,391.358,373.703,364.382z"/>
	<linearGradient id="SVGID_3_" gradientUnits="userSpaceOnUse" x1="418.854" y1="235.1157" x2="842" y2="235.1157">
		<stop  offset="0" style="stop-color:#FFFFFF"/>
		<stop  offset="1" style="stop-color:#C7EAFB"/>
	</linearGradient>
	<path fill="url(#SVGID_3_)" d="M842,102.27c-2.027-0.784-4.199-1.179-6.534-1.054c-0.816-5.488-6.339-9.188-11.267-10.674
		c-2.625-0.792-5.581-1.188-8.293-0.598c-2.515,0.547-4.439,2.439-6.732,2.247c-2.508-0.21-3.98-2.389-7.112-1.906
		c-2.604,0.401-5.03,1.982-6.899,3.771c-1.956,1.872-3.598,4.334-4.283,6.976c-0.133,0.512-0.658,6.94,0.248,6.677
		c-2.515,0.729-5.607,0.83-7.708,2.725c-0.877,0.792-4.244,6.257-2.366,7.245c-3.215-1.692-4.482-1.574-6.994,1.004
		c-5.099-11.156-26.757-5.689-21.646,6.713c-3.281,1.228-4.345,3.034-4.529,6.452c-2.186,0.198-4.101-0.987-6.305-0.313
		c4.782-1.395,7.435-7.645,1.792-10.115c2.007-4.38,3.476-9.337,1.416-14.053c-0.743-1.702-2.38-3.048-2.688-4.897
		c-0.363-2.179,1.224-4.512,1.232-6.819c0.043-11.31-14.093-14.426-22.942-12.224c0.795-6.335-10.414-9.979-14.997-10.006
		c-6.881-0.041-15.785,0.779-18.827,7.875c-5.831-4.868-18.721,1.94-20.729,8.609c-0.377,1.25,0.044,4.466-0.706,5.446
		c-1.072,1.4-5.146,2.03-6.764,2.529c-5.107,1.577-10.348,2.783-14.965,5.5c-3.076,1.81-2.553,4.649-5.204,6.759
		c-1.471,1.17-2.806,1.114-4.599,1.458c-3.52,0.676-6.562,1.367-9.576,3.508c-4,2.842-8.545,7.148-10.317,11.23
		c-2.33,5.362-1.53,19.362-5.531,22.513c-1.563,1.231-7.928,0.282-10.109,0.714c-3.978,0.788-7.659,2.12-10.926,4.585
		c-8.821,6.657-9.499,17.788-16.436,25.12c-8.205-7.517-16.887-4.429-26.246-3.825c-5.574,0.36-4.417-1.796-9.68-5.307
		c-3.25-2.168-6.321-2.89-10.206-2.857c-8.187,0.069-19.069,0.38-23,8.694c-3.276,6.929-1.175,15.503,5.393,19.187
		c-4.788,6.696-5.375,15.511,1.752,20.63c-10.594,3.048-4.319,13.706-1.226,19.411c-2.891,0.358-5.082,2.606-6.55,4.809
		c-6.281-11.595-23.071-8.484-29.443,1.288c-1.305,2.018-0.899,4.047-2.843,5.54c-1.492,1.146-5.55,0.365-7.517,1.343
		c-4.736,2.356-6.614,6.277-6.752,11.53c-21.94-1.394-36.173,25.135-35.509,44.23c0.922,26.514,24.639,41.442,46.472,50.435
		c20.946,8.627,41.04,17.535,63.305,22.479c28.059,6.231,56.355,10.429,85.014,12.95c41.913,3.687,85.376,8.001,127.475,6.804
		c23.962-0.682,48.938-8.315,70.56-18.558c17.142-8.12,25.521-24.156,30.299-41.951V102.27z"/>
	<linearGradient id="SVGID_4_" gradientUnits="userSpaceOnUse" x1="867.2656" y1="56.5762" x2="536.6201" y2="412.5924">
		<stop  offset="0" style="stop-color:#FFFFFF"/>
		<stop  offset="1" style="stop-color:#C7EAFB"/>
	</linearGradient>
	<path fill="url(#SVGID_4_)" d="M842,118.521c-2.761-0.776-3.02-0.842-5.099-5.277c-2.537-5.41-2.858-9.907-8.691-13.235
		c-6.199-3.537-11.619-0.707-17.664-1.91c-5.419-1.078-10.479-2.722-14.731,2.531c-2.796,3.454-0.377,7.708-0.422,11.301
		c-6.197-2.413-16.188,0.955-13.104,9.12c-2.6-1.448-7.37-2.7-8.3,1.531c-2.905-4.586-9.838-8.346-15.263-6.02
		c-6.563,2.813-3.033,7.51-3.794,12.834c-4.134,0.051-5.464,3.627-6.466,6.767c-2.633-3.091-7.395-3.4-11.463-3.333
		c6.301-2.967,4.752-8.598,0.836-12.522c4.065-0.857,6.03-6.604,2.451-9.256c2.86-3.748-0.088-10.31-5.148-9.487
		c3.664-4.066,2.403-9.972-1.993-12.819c-3.34-2.163-13.67-4.285-16.43-0.721c6.406-10.613-28.618-16.346-29.235-2.743
		c-3.241-3.321-10.952-1.983-14.274,0.697c-4.107,3.313-5.658,8.715-5.938,13.686c-8.672,0.507-23.206,3.032-25.44,13.486
		c-5.271-0.212-10.855,1.409-15.6,3.725c-13.972,6.817-11.878,29.458-11.844,44.123c0.005,1.743-0.021,3.374-0.104,4.852
		c-15.848-4.803-30.3,6.519-36.808,20.41c-5.973-5.875-29.846-7.708-37.081-3.4c-4.268-13.365-28.476-19.476-33.533-4.015
		c-0.843,2.576-1.213,6.742-0.658,9.528c0.715,3.584,4.771,7.2,4.655,10.206c-0.11,2.875-3.954,6.526-3.978,10.732
		c-0.021,3.862,0.292,7.751,3.351,10.187c-7.438,3.447,0.788,16.282,5.292,19.1c-7.091-1.621-14.335-0.916-14.901,8.081
		c-3.819-6.027-6.598-11.245-14.818-10.016c-3.18,0.475-5.817,1.32-8.198,3.402c-2.766,2.417-2.661,6.702-4.848,8.723
		c-2.055,1.899-5.936,1.229-8.095,3.376c-2.6,2.584-1.366,5.594-2.691,8.33c-2.767,5.708-11.882,8.919-12.924,16.33
		c-0.767,5.46,3.201,12.314,5.579,17.131c14.346,29.058,48.737,37.175,76.885,48.358c43.106,17.125,90.649,29.696,137.019,32.69
		c34.854,2.25,70.171,2.586,105.103,3.915c22.257,0.847,51.607-5.708,65.322-24.633c1.08-1.491,2.09-3.051,3.046-4.66V118.521z"/>
	<linearGradient id="SVGID_5_" gradientUnits="userSpaceOnUse" x1="261.4033" y1="390.0127" x2="370.7686" y2="390.0127">
		<stop  offset="0" style="stop-color:#209CD7"/>
		<stop  offset="1" style="stop-color:#44C8F5"/>
	</linearGradient>
	<path fill="url(#SVGID_5_)" d="M369.19,397.422c3.181-11.704,2.268-34.437-9.45-42.9c-7.961-5.75-27.369-0.391-24.987,10.846
		c-9.218-17.932-35.96-12.682-41.676,1.979c-11.848-6.665-28.314-1.366-31.078,12.103c-5.574,27.166,29.224,40.418,49.274,45.777
		C338.056,432.386,361.602,425.349,369.19,397.422z"/>
	<linearGradient id="SVGID_6_" gradientUnits="userSpaceOnUse" x1="634.7979" y1="406.0674" x2="524.3097" y2="221.9201">
		<stop  offset="0" style="stop-color:#44C8F5"/>
		<stop  offset="1" style="stop-color:#C7EAFB"/>
	</linearGradient>
	<path fill="url(#SVGID_6_)" d="M621.769,213.349c0.353-0.015,0.705-0.032,1.058-0.051c1.876-12.697,11.717-21.565,22.823-26.536
		c4.553-2.038,7.611-1.565,11.185-5.163c3.085-3.105,1.84-8.114,6.233-11.106c3.517-2.396,10.533-4.006,14.012-0.929
		c-0.991-5.327-1.127-12.251,1.474-17.214c3.309-6.314,9.811-6.427,16.011-6.701c-0.514-5.222-4.127-9.008-2.057-14.673
		c1.686-4.615,5.936-7.344,10.646-5.549c-0.91-1.056-2.697-2.98-2.081-4.658c0.666-1.81,3.123-2.282,4.512-1.228
		c-0.401-4.65,4.839-7.052,8.566-8.221c4.113-1.29,6.092,0.581,7.113,4.542c1.433-6.018,12.26,1.067,13.133,5.29
		c1.237,5.986-3.104,13.463-7.531,17.148c3.291-1.524,8.701-0.023,10.955,2.706c3.444,4.172,0.007,9.091-2.971,12.236
		c2.632-1.815,6.71,1.439,7.501,4.002c1.016,3.288-1.415,8.267-4.206,9.838c6.494,0.877,9.12,7.678,10.396,13.219
		c3.914,16.993-0.007,34.925-1.341,52.038c-1.662,21.333-5.613,42.582-12.426,62.886c-12.11,36.091-22.971,81.937-63.746,94.249
		c-67.678,20.437-136.739,29.923-208.009,29.974c-42.808,0.03-98.124-0.351-118.064-46.294c-3.063-7.059-4.233-15.387-1.772-22.805
		c1.238-3.731,6.882-10.41,7.77-11.557c-0.342-1.579-0.435-2.614-0.466-3.802c-0.064-2.459-0.44-6.065,1.759-8.952
		c4.36-5.724,8.581-6.121,13.33-7.596c-0.942-4.046,0.721-6.567,4.326-9.379c3.818-2.978,10.85-0.848,10.895,0.281
		c-0.498-12.441,12.272-20.178,23.203-9.248c5.292-8.306,16.547-3.682,23.9-2.856c-9.137-27.316,26.933-36.69,45.926-30.945
		c6.599-22.885,40.906-24.193,51.226-2.203c-1.753-10.265,4.938-16.331,13.174-20.643c9.925-5.195,25.665-1.878,31.749-6.98
		c3.157-2.647,4.283-8.642,8.029-11.8c4.315-3.639,11.44-7.263,16.801-9.048C603.507,212.725,612.772,213.727,621.769,213.349z"/>
	<linearGradient id="SVGID_7_" gradientUnits="userSpaceOnUse" x1="467.6396" y1="301.0195" x2="552.2412" y2="301.0195">
		<stop  offset="0" style="stop-color:#44C8F5"/>
		<stop  offset="1" style="stop-color:#C7EAFB"/>
	</linearGradient>
	<path fill="url(#SVGID_7_)" d="M488.949,324.74c20.285,9.823,61.28,9.328,63.249-20.724c0.84-12.828-10.772-21.818-21.283-27.708
		c-3.968-2.224-9.942-5.913-14.771-4.325c-1.874,0.616-9.434,8.847-7.317,9.31c-11.953-2.613-25.851-3.179-35.822,6.159
		C458.813,300.74,475.806,318.374,488.949,324.74z"/>
	<linearGradient id="SVGID_8_" gradientUnits="userSpaceOnUse" x1="505.8281" y1="296.4185" x2="632.8027" y2="296.4185">
		<stop  offset="0" style="stop-color:#44C8F5"/>
		<stop  offset="1" style="stop-color:#C7EAFB"/>
	</linearGradient>
	<path fill="url(#SVGID_8_)" d="M586,338.497c24.792-5.974,49.001-30.649,46.644-57.453c-2.015-22.908-40.569-29.686-59.615-29.595
		c-9.193,0.044-41.882,8.902-27.327,23.872c-9.238-1.552-22.209,9.516-18.075,19.199c-15.792-2.807-26.521,16.359-19.714,29.758
		C518.369,344.859,567.498,342.955,586,338.497z"/>
	<linearGradient id="SVGID_9_" gradientUnits="userSpaceOnUse" x1="367.7212" y1="444.0469" x2="227.7211" y2="372.0469">
		<stop  offset="0" style="stop-color:#209CD7"/>
		<stop  offset="1" style="stop-color:#44C8F5"/>
	</linearGradient>
	<path fill="url(#SVGID_9_)" d="M369.726,402.43c-2.34-10.222-3.401-24.974-15.028-28.882c-9.335-3.138-19.698,2.863-22.943,11.825
		c-8.082-13.974-34.588-20.457-48.676-10.772c-2.491,1.713-3.554,5.663-5.833,6.916c-1.812,0.997-4.482-0.027-6.246,0.913
		c-5.154,2.748-9.208,4.88-12.804,10.02c-6.002,8.579-5.048,16.855,0.705,24.972c-44.154,37.613,66.961,65.661,96.119,42.806
		C371.259,447.498,373.96,420.925,369.726,402.43z"/>
	<linearGradient id="SVGID_10_" gradientUnits="userSpaceOnUse" x1="733.8164" y1="214.4976" x2="658.7977" y2="155.5844">
		<stop  offset="0" style="stop-color:#FFFFFF"/>
		<stop  offset="1" style="stop-color:#44C8F5"/>
	</linearGradient>
	<path fill="url(#SVGID_10_)" d="M661.221,214.339c-4.768-3.266-8.497-4.887-8.49-11.543c0.004-4.617,2.382-9.055,5.229-12.547
		c5.424-6.649,15.469-12.594,24.036-8.959c4.459,1.892,8.73,5.38,11.337,9.419c1.212,1.878,2.144,3.4,3.19,4.97
		c1.515,2.269,2.055,3.51,2.395,6.325c3.889-2.807,8.764-4.416,13.551-4.152c-2.476-5.057-7.131-8.242-8.455-13.926
		c-1.176-5.044,0.062-12.883,6.324-13.2c-1.164-3.033-5.576-4.385-6.324-8.499c-0.965-5.299,2.704-6.528,5.956-9.146
		c4.644-3.738,9.854-11.326,14.484-1.438c4.924,0.908,8.447,5.083,6.749,10.16c11.463,0.561,15.423,21.814,14.812,30.26
		c-1.017,14.065-12.205,20.77-25.122,24.415c-9.247,2.61-19.361,3.544-28.831,5.276c-7.388,1.351-15.034,3.514-21.85-0.542
		C666.918,219.251,664.367,216.495,661.221,214.339z"/>
	<linearGradient id="SVGID_11_" gradientUnits="userSpaceOnUse" x1="401.1157" y1="497.2207" x2="268.1167" y2="376.2217">
		<stop  offset="0" style="stop-color:#FFFFFF"/>
		<stop  offset="1" style="stop-color:#44C8F5"/>
	</linearGradient>
	<path fill="url(#SVGID_11_)" d="M367.803,481.244c18.834-15.312,22.172-55.764,18.413-77.602
		c-1.929-11.204-9.004-22.156-22.932-22.685c-10.766-0.408-23.984,11.856-19.444,23.409c-4.404-5.557-12.159-4.53-16.911,0.731
		c3.426-19.899-20.294-25.97-34.925-21.924c-16.209,4.482-35.795,22.925-15.087,36.071c-6.644,0.241-13.106,5.625-16.717,11.207
		c-8.391,12.969-1.828,23.855,7.559,34.271C288.788,488.057,340.459,503.465,367.803,481.244z"/>
	<path fill="#FFFFFF" d="M842,144.409c-5.41-0.198-10.827,0.904-12.167,4.285c-0.577-1.17-1.156-2.315-1.752-3.425
		c-3.88-7.237-8.427-12.999-17.239-14.743c-4.675-0.926-8.651-1.162-12.541,2.155c-1.241,1.059-7.273,9.584-5.071,11.134
		c-2.129-1.499-6.515-1.511-9.063-1.515c-4.395-0.007-4.284,2.696-7.328,4.007c-1.621,0.698-4.108-0.247-5.921,0.346
		c-2.15,0.703-4.086,2.678-5.217,4.544c-1.821,3.005-3.238,7.496-2.117,10.935c-3.417-3.405-9.132-5.034-13.907-4.797
		c-4.635,0.23-4.699,2.606-4.843,6.704c-3.649-0.622-8.026,0.115-7.686,4.919c-3.819-4.119-13.513-5.138-17.74-0.895
		c-1.56,1.565-2.841,4.192-2.748,6.438c0.105,2.552,2.426,4.113,2.724,6.389c-6.262,0.195-10.643,5.883-7.517,11.971
		c-2.376-1.33-7.362,1.833-8.091,4.52c0.629-4.986-9.332-13.237-13.793-8.888c-0.234-2.945-6.38-2.608-8.351-1.67
		c-3.236,1.539-3.091,4.023-2.401,6.942c-3.328-0.291-7.265,1.692-8.293,4.835c-5.597-3.711-16.446-0.022-22.235,1.649
		c-8.713,2.516-15.874,7.853-19.469,16.246c-2.99,6.982-2.961,14.044-3.604,21.406c-0.524,5.998-0.734,12.112-0.934,18.133
		c-0.191,5.794-0.743,15.48,3.75,19.956c3.881,3.867,10.13,2.339,14.935,1.506c10.272-1.78,20.349-3.594,30.741-4.527
		c12.806-1.15,25.438-0.231,38.258,0.162c12.291,0.377,25.253-0.091,37.417,1.884c17.243,2.8,33.531,1.529,50.858-0.369
		c11.473-1.257,20.195-3.126,22.682-16.077c1.245-6.486-1.076-15.441,2.961-20.214c3.241-3.833,7.787-6.92,11.247-10.667
		c1.571-1.702,3.05-3.431,4.456-5.187V144.409z"/>
	<linearGradient id="SVGID_12_" gradientUnits="userSpaceOnUse" x1="393.5605" y1="300.7256" x2="842" y2="300.7256">
		<stop  offset="0" style="stop-color:#FFFFFF"/>
		<stop  offset="1" style="stop-color:#C7EAFB"/>
	</linearGradient>
	<path fill="url(#SVGID_12_)" d="M842,148.914c-7.255,0.266-13.858,3.125-16.771,9.454c-2.696-6.992-11.801-10.813-19.047-11.22
		c-5.278-0.296-10.756,1.193-14.618,4.827c-3.274,3.082-1.229,2.744-6.306,1.767c-3.47-0.668-6.43-0.431-9.37,1.747
		c-5.34,3.956-3.301,8.082-3.501,13.47c-3.42-2.763-7.339-0.594-7.355,3.371c-2.666-5.252-9.323-6.442-14.88-4.954
		c-5.693,1.525-8.328,5.292-8.945,10.71c-2.552-4.305-13.722,0.07-9.324,6.129c-2.05-1.713-5.361-0.779-6.948,1.372
		c-2.356,3.193-0.501,6.104,1.208,8.789c-2.693-0.051-7.84,1.05-8.955,4.016c-1.026,2.727,2.105,4.757,2.188,7.333
		c-3.052-0.789-13.61-3.541-14.725,1.531c-4.192-2.155-7.483-5.564-12.891-6.104c-3.423-0.342-7.706,0.037-9.972,2.741
		c3.209-3.829-10.592-2.024-10.308-2.049c-2.348,0.208-2.697,4.42-5.143,4.64c-2.038,0.183-3.426-3.117-5.576-3.102
		c-4.238,0.03-8.957,0.41-12.63,2.121c-4.042,1.883-6.815,5.379-6.284,11.795c-14.377-1.643-23.496,12.188-19.977,24.977
		c-10.272-0.534-28.533,3.512-27.023,17.027c-11.488,0.636-27.929,16.821-16.199,27.167c-12.649,3.193-20.938,15.376-13.749,26.774
		c-9.354-0.05-42.521-24.104-49.123-6.92c-9.155-11.683-61.729-25.098-59.929,1.023c-8.324-4.291-18.482-1.386-18.801,8.752
		c-6.561-9.317-24.334-4.657-32.322,0.379c-14.056,8.862-9.759,17.811-7.977,31.023c0.828,6.137-0.818,7.701-1.998,13.723
		c-1.535,7.831,1.083,6.319,3.026,12.473c1.164,3.687,2.501,1.103,2.294,5.727c-0.064,1.434-4.592,5.859-5.317,8.026
		c-1.618,4.841-2.4,13.459,3.091,15.167c-3.228,9.382,7.499,18.688,15.083,23.859c11.834,8.07,28.219,10.818,42.056,13.025
		c31.019,4.947,62.652,8.481,93.868,11.991c98.29,11.051,215.562-7.707,270.946-98.313c7.558-12.364,15.86-25.628,22.201-38.663
		V148.914z"/>
	<linearGradient id="SVGID_13_" gradientUnits="userSpaceOnUse" x1="840.3125" y1="234.8442" x2="386.3143" y2="426.8438">
		<stop  offset="0" style="stop-color:#FFFFFF"/>
		<stop  offset="1" style="stop-color:#44C8F5"/>
	</linearGradient>
	<path fill="url(#SVGID_13_)" d="M605.385,254.132c6.531-6.434,12.003-11.567,24.464-11.834c-0.466-9.157,5.51-20.396,15.436-21.591
		c4.649-0.56,9.426,4.3,13.039,3.437c1.622-0.388,4.495-5.363,6.283-6.515c8.788-5.659,31.47-9.291,33.155,6.013
		c3.82-5.786,14.809-3.125,20.143-1.557c8.642,2.54,14.927,7.543,20.8,14.303c11.379,13.096,10.273,32.296,7.022,48.184
		c-3.458,16.893,1.808,35.947-5.453,51.879c-14.012,30.747-51.645,58.344-81.027,71.992
		c-52.319,24.302-112.056,33.642-169.194,29.062c-15.629-1.252-84.766,4.841-80.199-23.907c-10.107-0.594-10.97-10.989-9.626-19.147
		c0.367-2.229,3.382-4.472,3.567-6.219c0.196-1.849-1.81-3.526-1.594-4.758c0.791-4.512-0.686-7.218,2.897-11.02
		c-7.198-6.213,0.426-13.196-1.021-20.056c-1.524-7.223-7.809-8.111-5.075-18c2.489-9.003,7.803-14.426,16.754-15.948
		c11.986-2.038,20.566,5.292,31.071,5.822c2.006,0.102,9.876-9.748,16.227-9.67c2.92,0.036,7.967,3.335,10.348,2.816
		c4.308-0.938,2.92-4.042,6.449-5.941c11.771-6.334,25.896-4.479,36.151,5.096c11.905-8.597,33.663,2.142,33.199,16.552
		c5.114-8.064,18.029-20.337,28.701-18.878c-6.588-10.457,1.836-29.532,14.717-29.722c-3.844,0.057-3.876-11.16-3.512-13.217
		c1.407-7.924,5.457-7.217,10.143-11.344C601.513,257.968,603.493,255.996,605.385,254.132z"/>
	<linearGradient id="SVGID_14_" gradientUnits="userSpaceOnUse" x1="406.2808" y1="361.9375" x2="567.0508" y2="361.9375">
		<stop  offset="0" style="stop-color:#FFFFFF"/>
		<stop  offset="1" style="stop-color:#44C8F5"/>
	</linearGradient>
	<path fill="url(#SVGID_14_)" d="M474.984,406.445c26.853,10.354,62.153,2.741,81.776-18.502
		c18.657-20.197,11.386-64.978-17.282-74.312c-6.212-2.022-12.765-2.008-18.885,0.35c-1.915,0.737-17.173,12.522-15.542,13.365
		c-9.621-4.972-20.57-1.416-24.223,8.977c-10.565-7.606-23.899-7.969-33.604,0.801c-17.481-26.259-52.567,15.657-28.306,31.074
		c-8.022,2.313-10.701,12.093-5.293,18.054c-14.16,6.694-5.475,22.142,6.1,24.42c8.354,1.645,17.702,1.641,25.544-2.197
		C458.686,401.909,460.695,400.937,474.984,406.445z"/>
	<linearGradient id="SVGID_15_" gradientUnits="userSpaceOnUse" x1="268.0913" y1="441.2686" x2="441.29" y2="441.2686">
		<stop  offset="0" style="stop-color:#44C8F5"/>
		<stop  offset="1" style="stop-color:#C7EAFB"/>
	</linearGradient>
	<path fill="url(#SVGID_15_)" d="M433.816,472.52c22.207-36.823-7.731-104.595-54.791-79.121
		c-12.019,6.506-16.821,17.178-19.732,28.998c-6.289-16.954-27.899,0.292-32.02,8.977c-6.661-13.548-48.403,0.388-54.318,9.825
		c-13.047,20.813,2.026,40.34,23,45.274c24.657,5.801,50.403,9.198,75.802,8.024C392.862,493.522,421.73,492.562,433.816,472.52z"/>
	<path fill="#FFFFFF" d="M842,264.166c-4.12-0.105-8.422,0.674-12.911,2.101c-4.448,1.415-5.947,3.015-10.163,1.083
		c-3.607-1.653-4.828-2.581-8.919-2.471c-2.759,0.074-5.713,0.752-8.424,0.36c-0.338-5.397-9.406-9.806-11.615-3.369
		c-5.182-2.625-17.28-5.953-18.13,3.495c-0.919-3.975-6.791-5.547-10.943-5.636c0.087-2.085-0.309-4.769-2.576-5.117
		c2.656-2.509,3.781-10.342-1.145-11.763c0.34-6.151-3.459-12.237-9.962-14.006c-3.886-1.058-8.298-0.511-12.131,0.446
		c-1.011,0.252-2.96,1.135-3.93,1.185c-1.089,0.056-1.831-1.295-2.979-1.239c-19.44,0.945-18.502,33.214-18.203,46.665
		c0.166,7.476,3.276,15.399,8.167,21.118c5.233,6.12,8.533,10.906,12.17,18.322c9.301,18.968,33.648,26.771,52.543,31.775
		c19.015,5.035,40.001,13.107,59.15,8.259V264.166z"/>
	<linearGradient id="SVGID_16_" gradientUnits="userSpaceOnUse" x1="712.8096" y1="285.3667" x2="842" y2="285.3667">
		<stop  offset="0" style="stop-color:#FFFFFF"/>
		<stop  offset="1" style="stop-color:#44C8F5"/>
	</linearGradient>
	<path fill="url(#SVGID_16_)" d="M842,266.13c-1.257,0.463-2.438,1.055-3.407,1.693c-1.238,0.817-7.31,7.155-6.243,8.781
		c-3.518-5.365-14.805-6.511-18.976-1.256c-4.268-5.49-13.411-6.406-18.543-1.612c-0.588-4.706-5.457-8.662-9.845-9.821
		c-2.464-0.651-4.991-0.656-6.787,1.367c-1.72,1.936-0.324,4.578-2.873,5.465c-0.909-3.602-5.861-6.632-8.604-2.617
		c3.427-6.435-5.715-6.1-9.547-5c2.702-3.212,1.626-10.132-3.753-8.815c7.036-3.026,3.418-8.835-2.711-8.996
		c3.294-14.439-22.067-16.986-30.156-8.433c-4.182,4.421-4.479,10.662-2.862,16.126c0.761,2.572,2.975,5.42,2.583,8.023
		c-0.573,3.797-4.804,7.968-6.067,11.891c-5.279,16.395,5.088,28.319,19.159,35.587c17.695,9.141,36.141,15.979,55.106,22.062
		c15.797,5.066,37.495,12.836,53.525,4.503V266.13z"/>
	<linearGradient id="SVGID_17_" gradientUnits="userSpaceOnUse" x1="619.793" y1="288.6025" x2="751.9385" y2="288.6025">
		<stop  offset="0" style="stop-color:#FFFFFF"/>
		<stop  offset="1" style="stop-color:#44C8F5"/>
	</linearGradient>
	<path fill="url(#SVGID_17_)" d="M652.289,326.893c-12.15-2.684-28.08-9.886-31.837-22.977c-2.022-7.048,0.976-14.492,4.044-20.791
		c3.126-6.416,7.231-15.18,12.015-20.497c4.583-5.094,12.856-11.426,19.333-5.527c2.702-8.152,17.418-8.464,18.586,0.962
		c2.594-1.831,8.503-5.921,9.812,0.022c1.442-4.639,10.662-14.265,15.227-6.823c2.999-1.8,9.822-4.288,10.916,0.54
		c3.938-3.96,13.984-3.673,14.919,2.861c6.871-2.715,14.071-0.003,13.553,8.457c5.089-0.55,9.015,4.813,10.858,8.945
		c3.996,8.958,2.428,19.756-3.257,27.568c-9.567,13.148-24.994,19.844-40.304,23.638
		C688.698,327.598,670.146,330.837,652.289,326.893z"/>
	<linearGradient id="SVGID_18_" gradientUnits="userSpaceOnUse" x1="0" y1="423.9023" x2="842" y2="423.9023">
		<stop  offset="0" style="stop-color:#FFFFFF"/>
		<stop  offset="1" style="stop-color:#44C8F5"/>
	</linearGradient>
	<path fill="url(#SVGID_18_)" d="M818.557,304.961c-1.379-5.335,1.9-10.094,0.462-15.213c-1.026-3.653-4.02-6.893-8.175-6.821
		c-3.137,0.054-5.498,2.716-8.416,2.929c-1.271-3.114-4.248-5.918-6.749-1.651c-4.3-3.886-10.572-7.201-16.538-5.838
		c-3.687,0.842-6.9,4.61-10.617,4.523c-0.812-11.234-12.172-10.555-20.345-9.748c0.502-7.724-9.026,0.245-12.16-4.702
		c-1.566-2.473,0.37-5.843-0.919-8.371c-2.212-4.34-5.811-1.61-9.384-1.76c1.165-7.343-12.021-2.737-14.505-0.074
		c1.245-6.702-10.37-6.788-11.074-0.744c-1.619-2.594-5.862-1.971-7.553,0.459c-2.157,3.098,1.381,5.298,0.366,8.093
		c-0.647,1.782-4.645,2.184-4.923,5.47c-0.225,2.645,1.848,5.788,4.83,5.054c-0.807,5.301-4.744,7.516-10.014,7.658
		c-2.887,0.078-12.803-2.632-7.533-6.789c3.124-2.464,5.962,1.632,7.119-4.666c0.711-3.87-0.937-7.291-5.359-6.315
		c3.389-6.689-3.562-6.641-7.715-6.028c-0.54-7.143-7.845,0.875-8.985,3.274c-11.812-15.396-28.296,3.454-28.057,17.873
		c0.022,1.396,0.203,2.749,0.559,4.026c-23.396-6.854-63.997,16.554-43.249,42.217c-7.576-4.688-19.07-2.554-23.671,5.552
		c1.325-8.229-6.727-11.233-12.952-12.424c-12.277-2.348-15.116,2.877-22.752,9.773c-6.285,5.673-12.896,4.846-17.217,13.266
		c-3.111,6.062-4.654,16.131-1.131,22.336c-6.739-3.433-15.244-1.911-18.143,5.322c-0.247-10.025-11.155-16.599-20.754-11.043
		c-7.474-10.619-30.797-7.151-36.807,3.095c-1.725,2.941-0.044,6.125-1.174,9.052c-1.253,3.242-4.093,4.981-5.27,8.754
		c-1.598,5.128-2.171,13.446,3.17,15.997c-15.304,0.098-18.605,27.011-8.326,35.222c-8.142,2.588-15.625,8.438-15.625,18.127
		c-5.205-13.277-25.981-7.746-29.77-0.223c0-7.827-7.318-15.561-9.15-16.807c-9.294-6.324-23.356-5.84-33.211-1.498
		c-4.381,1.93-8.788,4.712-12.476,7.747c-6.246,5.141-9.334,13.24-7.758,20.938c-0.77-4.895-9.561-5.903-13.414-6.11
		c-6.217-0.334-10.995,1.425-15.068,6.18c0.348-13.23-22.455-20.319-32.703-18.596c-6.474,1.089-12.959,6.393-15.371,12.658
		c-1.726,4.481,0.262,8.991,1.115,13.059c-1.912-1.012-7.06,0.33-8.946,1.357c-3.488,1.899-3.332,5.344-4.579,8.273
		c-0.778-4.725-15.626-2.503-17.765,0.844c0.236-3.57-4.882-8.47-7.498-10.443c-4.825-3.641-11.403-4.338-17.311-4.024
		c-8.481,0.45-16.072,9.087-15.488,17.881c-3.41-4.618-12.735-6.545-18.042-7.016c-7.623-0.675-15.27,0.744-22.319,3.656
		c-13.358,5.519-21.687,26.228-11.57,38.826c-8.122,0.763-12.431,6.778-14.852,14.098c-29.797,0-35.002,21.988-34.749,37.726
		c-8.511-11.31-29.218-19.625-39.826-6.723C26.174,551.504,8.544,553.996,0,556.396v38.329h842V308.423
		C835.184,301.83,826.151,296.988,818.557,304.961z"/>
	<linearGradient id="SVGID_19_" gradientUnits="userSpaceOnUse" x1="422.1299" y1="294.8979" x2="932.8447" y2="554.3661">
		<stop  offset="0" style="stop-color:#FFFFFF"/>
		<stop  offset="1" style="stop-color:#44C8F5"/>
	</linearGradient>
	<path fill="url(#SVGID_19_)" d="M842,353.936c-6.017-1.617-12.436-2.05-18.372-1.473c-6.623,0.644-12.423,2.265-18.604,4.882
		c-5.742,2.431-13.147,3.719-19.812,15.263c-2.966-0.873-6.517-0.113-9.211,1.348c-1.228,0.665-2.941,3.004-3.952,3.338
		c-1.368,0.453-2.804-0.647-4.301-1.015c-10.134-2.486-22.741,0.355-27.053,10.915c-1.139,2.79-0.031,4.704-0.134,7.491
		c-3.833-0.779-11.558,0.902-12.504,5.257c-3.642-4.854-7.456-8.243-13.626-9.507c-3.947-0.808-8.05-1.353-12.085-1.092
		c-3.451,0.223,1.216,0.534-2.585,1.521c-1.338-3.851-9.604-4.428-10.484-5.856c-1.16-1.879-2.67-3.535-4.282-5.033
		c-2.976-2.765-6.501-5.018-10.197-6.689c-12.522-5.662-24.371-7.21-37.759-5.431c-12.308,1.636-25.039,10.277-30.756,21.031
		c-3.433,6.456-4.546,16.018-1.684,22.234c0.116,0.128-9.975-2.883-14.739,6.092c-2.189,4.125-0.567,9.395,1.539,12.756
		c-3.289-1.518-8.774-0.217-12.171,0.281c-4.151,0.608-8.198,2.246-11.364,5.308c-3.029,2.931-5.342,7.833-5.994,11.849
		c-0.688,4.288,1.338,7.969,1.255,12.253c0.012-0.613-3.099,1.512-6.135,7.232c-1.908,3.596-3.73,1.677-7.142,3.847
		c-6.002,3.817-8.283,11.173-8.673,18.006c-0.708,12.42,8.961,27.886,21.275,31.235c11.177,3.041,22.465-3.321,33.754,0.651
		c5.481,1.929,12.289,6.146,17.502,9.026c11.697,6.462,20.177,8.076,34.114,7.571c13.324-0.482,18.021,3.226,30.383,7.29
		c12.665,4.166,24.713-1.17,36.781,4.11c16.627,7.275,23.043,9.734,42.08,6.747c14.48-2.271,24,3.364,37.962,4.921
		c13.409,1.494,31.862,0.558,46.974-4.904V353.936z"/>
	<linearGradient id="SVGID_20_" gradientUnits="userSpaceOnUse" x1="287.6782" y1="534.418" x2="842" y2="534.418">
		<stop  offset="0" style="stop-color:#FFFFFF"/>
		<stop  offset="1" style="stop-color:#44C8F5"/>
	</linearGradient>
	<path fill="url(#SVGID_20_)" d="M842,531.454c-5.472-3.239-11.666-2.083-17.965-5.53c-6.182-3.383-1.085-5.352-5.147-9.271
		c-3.999-3.858-14.198-5.132-19.781-5.076c-4.134-13.043-24.697-13.588-27.832,0.842c-3.007-11.392-17.229,0.056-22.319,3.975
		c-0.376-7.921-10.553-12.182-17.553-8.74c-11.02,5.418-0.237,5.946-0.559,14.118c-0.4,10.196-21.261,19.106-29.63,14.446
		c-5.965-3.32-2.385-9.588-9.178-12.998c-4.949-2.484-14.943-2.582-17.721,3.269c-1.071-6.498-10.917-8.041-15.881-6.531
		c1.509-8.238-0.664-17.336-8.752-22.565c-5.895-3.812-15.21-3.003-21.915-0.733c3.899-15.006-19.642-26.492-31.434-21.267
		c-13.164,5.833-17.535,15.946-14.804,26.598c-1.052-4.104-8.98-5.502-12.299-5.152c-3.062,0.322-4.664,2.004-7.29,3.036
		c-4.403,1.731-2.004,1.721-7.07,1.319c-14.48-1.145-23.243-2.961-33.174,6.97c-2.349,2.349-3.48,6.057-4.455,9.385
		c-6.813-2.343-14.907,0.576-17.425,2.826c-3.413,3.053-6.393,9.34-6.393,16.596c-5.533-3.594-14.425-3.636-19.271,3.457
		c-7.82-15.726-25.561-9.014-30.154-3.578c-9.319-8.202-34.871-8.793-39.667,5.726c-16.023-1.261-20.667,15.413-16.488,24.826
		c-16.845-10.008-28.033-3.71-33.845,2.103c-10.457-2.869-10.457-2.869-15.023-2.797c-3.548,0.057-7.666,2.812-11.025,2.087
		c-10.312-2.222-21.231-2.175-32.5,9.782c-3.876,4.113-6.84,9.993-7.774,16.15H842V531.454z"/>
</g>
<g id="Birds-in-the-Sky">
	<linearGradient id="SVGID_21_" gradientUnits="userSpaceOnUse" x1="390.6167" y1="206.7061" x2="434.8105" y2="206.7061">
		<stop  offset="0" style="stop-color:#0054A6"/>
		<stop  offset="1" style="stop-color:#44C8F5"/>
	</linearGradient>
	<path fill="url(#SVGID_21_)" d="M402.841,203.192c-2.363,1.603-4.214,3.65-5.901,5.988c-1.719,2.379-2.552,4.827-3.613,7.538
		c-0.557,1.421-0.947,2.918-1.431,4.339c-0.372,1.094-1.13,2.528-1.115,3.675c-0.541-4.142,0.34-8.335,1.406-12.323
		c0.936-3.498,1.621-7.414,2.874-10.755c1.402-3.736,5.335-4.224,6.235-3.785c-0.055-0.441-0.18-0.731-0.344-1.005
		c-0.365-0.608-0.624-0.703-1.303-1.009c-0.188-0.085-0.562-0.272-0.839-0.35c0.216-0.141,0.805-0.274,0.967-0.374
		c0.386-0.237,0.586-0.49,1.031-0.607c0.42-0.112,0.945-0.163,1.358-0.04c0.371,0.109,0.806,0.345,1.118,0.593
		c0.319,0.253,0.622,0.778,1.02,0.842c0.977,0.158,0.87-1.064,0.996-1.649c0.17-0.786,0.628-1.681,1.277-2.177
		c1.416-1.08,3.309-1.643,4.981-2.177c5.252-1.674,11.069-1.277,16.489-0.932c1.328,0.084,2.689,0.061,4.004,0.277
		c0.621,0.102,2.395,0.321,2.758,0.89c-0.211,0.027-0.264,0.207-0.416,0.264c-0.23,0.085-0.553,0.083-0.818,0.077
		c-0.873-0.022-1.73-0.151-2.611-0.094c-2.41,0.154-4.832,0.545-7.18,1.111c-2.713,0.655-5.673,1.64-7.971,3.256
		c-1.681,1.182-3.312,2.319-4.852,3.603c-0.675,0.563-1.267,1.715-0.509,2.454c0.818,0.8,1.744,1.533,2.547,2.395
		c0.972,1.042,2.058,2.079,2.927,3.207c0.706,0.918,1.506,1.818,2.204,2.755c-0.382-0.021-0.917-0.1-1.243-0.306
		c0.011,0.411,0.116,0.883,0.347,1.207c-1.186-1.091-2.154-2.365-3.496-3.29c-0.824-0.57-1.646-1.112-2.515-1.615
		c-1.445-0.833-2.776-1.961-4.288-2.675C405.462,201.802,404.123,202.323,402.841,203.192z"/>
	<linearGradient id="SVGID_22_" gradientUnits="userSpaceOnUse" x1="518.5371" y1="177.8535" x2="555.7129" y2="177.8535">
		<stop  offset="0" style="stop-color:#0054A6"/>
		<stop  offset="1" style="stop-color:#44C8F5"/>
	</linearGradient>
	<path fill="url(#SVGID_22_)" d="M525.145,178.465c-1.268,2.083-1.979,4.333-2.459,6.749c-0.49,2.459-0.266,4.657-0.129,7.141
		c0.072,1.302,0.301,2.604,0.43,3.879c0.102,0.983,0.02,2.366,0.441,3.252c-1.895-3.027-2.699-6.598-3.289-10.074
		c-0.514-3.05-1.373-6.337-1.588-9.378c-0.236-3.4,2.646-5.178,3.502-5.156c-0.199-0.324-0.398-0.504-0.625-0.659
		c-0.498-0.342-0.734-0.324-1.371-0.321c-0.174,0-0.533-0.011-0.775,0.026c0.117-0.186,0.527-0.5,0.617-0.634
		c0.217-0.321,0.283-0.59,0.586-0.839c0.287-0.236,0.676-0.462,1.041-0.514c0.328-0.047,0.748-0.018,1.08,0.064
		c0.338,0.083,0.758,0.383,1.092,0.292c0.639-0.175,0.441-0.903,0.324-1.345c-0.1-0.384-0.219-0.826-0.08-1.217
		c0.182-0.513,0.744-0.899,1.105-1.286c1.795-1.91,3.863-3.44,6.035-4.884c7.391-4.914,16.055-6.36,24.631-7.34
		c-4.896,0.397-9.625,3.356-13.795,5.935c-4.299,2.657-10.41,6.563-12.32,11.491c3.18,0.869,6.344,2.664,9.502,3.652
		c-0.32,0.374-0.535,0.9-0.732,1.29c-0.9-0.722-2.342-0.694-3.418-0.908c-1.461-0.29-2.896-0.614-4.379-0.859
		C527.852,176.374,526.697,175.908,525.145,178.465z"/>
	<linearGradient id="SVGID_23_" gradientUnits="userSpaceOnUse" x1="54.7466" y1="300.6182" x2="71.6689" y2="300.6182">
		<stop  offset="0" style="stop-color:#0054A6"/>
		<stop  offset="1" style="stop-color:#44C8F5"/>
	</linearGradient>
	<path fill="url(#SVGID_23_)" d="M60.613,309.007c0.605,1.645,1.552,3.051,2.696,4.401c1.165,1.375,2.501,2.233,3.959,3.266
		c0.765,0.541,1.599,0.995,2.375,1.495c0.597,0.382,1.338,1.046,2.025,1.205c-2.549-0.288-4.917-1.432-7.136-2.655
		c-1.948-1.076-4.181-2.062-5.986-3.302c-2.02-1.387-1.73-3.805-1.336-4.275c-0.271-0.032-0.461-0.001-0.648,0.056
		c-0.417,0.128-0.512,0.27-0.794,0.627c-0.078,0.101-0.245,0.296-0.333,0.449c-0.052-0.149-0.045-0.521-0.08-0.63
		c-0.084-0.267-0.206-0.424-0.21-0.705c-0.004-0.268,0.042-0.588,0.176-0.816c0.121-0.204,0.325-0.429,0.52-0.578
		c0.198-0.153,0.555-0.255,0.652-0.483c0.187-0.438-0.311-0.652-0.611-0.785c-0.261-0.115-0.563-0.246-0.721-0.499
		c-0.207-0.331-0.172-0.819-0.229-1.197c-0.272-1.863-0.208-3.711-0.048-5.578c0.541-6.355,3.602-11.876,6.888-17.138
		c-1.966,2.932-2.417,6.915-2.832,10.414c-0.427,3.606-0.963,8.792,0.955,12.07c1.91-1.399,4.335-2.377,6.304-3.712
		c0.066,0.349,0.266,0.704,0.397,0.989c-0.808,0.185-1.438,1.007-2.04,1.517c-0.815,0.693-1.64,1.354-2.441,2.078
		C60.647,306.549,59.869,306.989,60.613,309.007z"/>
	<linearGradient id="SVGID_24_" gradientUnits="userSpaceOnUse" x1="143.9756" y1="49.8931" x2="178.793" y2="49.8931">
		<stop  offset="0" style="stop-color:#0054A6"/>
		<stop  offset="1" style="stop-color:#44C8F5"/>
	</linearGradient>
	<path fill="url(#SVGID_24_)" d="M152.646,47.325c-1.506,0.769-2.745,1.837-3.909,3.088c-1.186,1.273-1.855,2.651-2.678,4.167
		c-0.431,0.795-0.771,1.647-1.16,2.447c-0.299,0.616-0.851,1.403-0.925,2.079c-0.015-2.476,0.811-4.876,1.73-7.143
		c0.806-1.988,1.498-4.24,2.479-6.114c1.098-2.093,3.448-2.092,3.944-1.768c0-0.263-0.052-0.444-0.128-0.616
		c-0.17-0.384-0.315-0.459-0.691-0.689c-0.104-0.063-0.312-0.201-0.468-0.267c0.136-0.067,0.493-0.102,0.597-0.149
		c0.243-0.111,0.38-0.246,0.651-0.282c0.255-0.035,0.567-0.026,0.802,0.076c0.209,0.093,0.448,0.263,0.613,0.431
		c0.169,0.173,0.309,0.503,0.538,0.57c0.441,0.13,0.59-0.371,0.683-0.675c0.08-0.263,0.171-0.567,0.394-0.748
		c0.295-0.236,0.767-0.26,1.123-0.356c1.754-0.474,3.533-0.623,5.341-0.684c6.151-0.208,11.792,2.094,17.211,4.641
		c-3.035-1.549-6.904-1.525-10.305-1.522c-3.504,0.002-8.536,0.082-11.457,2.295c1.56,1.671,2.772,3.882,4.276,5.617
		c-0.325,0.104-0.644,0.336-0.902,0.493c-0.269-0.753-1.127-1.262-1.687-1.781c-0.757-0.703-1.484-1.417-2.271-2.103
		C155.008,47.077,154.495,46.383,152.646,47.325z"/>
	<g>
		<linearGradient id="SVGID_25_" gradientUnits="userSpaceOnUse" x1="270.6455" y1="135.1182" x2="312.4956" y2="135.1182">
			<stop  offset="0" style="stop-color:#0054A6"/>
			<stop  offset="1" style="stop-color:#44C8F5"/>
		</linearGradient>
		<path fill="url(#SVGID_25_)" d="M281.58,130.27c-1.909,1.085-3.54,2.681-5.057,4.609c-1.545,1.962-2.446,4.122-3.465,6.537
			c-0.534,1.267-0.942,2.625-1.386,3.917c-0.343,0.995-0.96,2.302-1.009,3.37c-0.158-3.865,0.855-7.742,2.126-11.318
			c1.116-3.134,2.263-6.625,3.798-9.455c1.718-3.167,4.528-2.984,5.038-2.471c0.062-0.391,0.044-0.66-0.003-0.921
			c-0.107-0.582-0.259-0.704-0.644-1.076c-0.106-0.104-0.314-0.326-0.481-0.438c0.179-0.089,0.608-0.11,0.742-0.171
			c0.317-0.144,0.513-0.331,0.841-0.361c0.31-0.028,0.676,0.013,0.923,0.187c0.223,0.156,0.458,0.428,0.608,0.688
			c0.153,0.268,0.237,0.762,0.489,0.88c0.486,0.226,0.786-0.487,0.973-0.917c0.162-0.374,0.352-0.804,0.663-1.039
			c0.411-0.309,0.972-0.291,1.415-0.386c2.189-0.47,4.312-0.429,6.437-0.243c7.234,0.632,13.105,4.709,18.908,8.543
			c-3.229-2.29-7.686-2.952-11.645-3.426c-4.079-0.487-10.024-1.023-13.885,1.93c1.514,2.468,2.625,5.593,4.23,7.975
			c-0.392,0.136-0.789,0.453-1.105,0.667c-0.251-1.036-1.208-1.749-1.805-2.482c-0.809-0.993-1.57-2.019-2.391-3.021
			C284.391,130.014,283.922,128.937,281.58,130.27z"/>
	</g>
	<linearGradient id="SVGID_26_" gradientUnits="userSpaceOnUse" x1="374.4648" y1="260.3462" x2="404.7808" y2="260.3462">
		<stop  offset="0" style="stop-color:#0054A6"/>
		<stop  offset="1" style="stop-color:#44C8F5"/>
	</linearGradient>
	<path fill="url(#SVGID_26_)" d="M380.156,260.051c-0.91,1.901-1.318,3.991-1.51,6.253c-0.196,2.304,0.208,4.403,0.562,6.768
		c0.186,1.241,0.51,2.49,0.743,3.707c0.18,0.938,0.241,2.246,0.692,3.111c-1.94-2.984-2.984-6.421-3.827-9.756
		c-0.74-2.926-1.802-6.095-2.275-8.993c-0.532-3.241,1.823-4.752,2.572-4.68c-0.207-0.32-0.398-0.504-0.609-0.664
		c-0.47-0.354-0.672-0.351-1.227-0.387c-0.155-0.012-0.47-0.043-0.677-0.022c0.085-0.168,0.414-0.442,0.48-0.563
		c0.157-0.292,0.192-0.543,0.432-0.761c0.229-0.206,0.548-0.397,0.861-0.425c0.283-0.024,0.654,0.029,0.95,0.126
		c0.304,0.101,0.701,0.41,0.982,0.343c0.542-0.127,0.301-0.829,0.158-1.254c-0.125-0.371-0.27-0.799-0.187-1.16
		c0.11-0.477,0.565-0.809,0.845-1.154c1.388-1.704,3.053-3.028,4.814-4.266c5.998-4.214,13.437-5.061,20.844-5.47
		c-4.243,0.079-8.098,2.601-11.501,4.793c-3.507,2.26-8.482,5.597-9.684,10.155c2.861,1.018,5.797,2.912,8.654,4.042
		c-0.246,0.335-0.384,0.821-0.521,1.18c-0.854-0.74-2.11-0.8-3.075-1.071c-1.304-0.362-2.587-0.758-3.908-1.08
		C382.327,258.232,381.271,257.719,380.156,260.051z"/>
	<linearGradient id="SVGID_27_" gradientUnits="userSpaceOnUse" x1="174.6172" y1="245.6309" x2="199.5884" y2="245.6309">
		<stop  offset="0" style="stop-color:#0054A6"/>
		<stop  offset="1" style="stop-color:#44C8F5"/>
	</linearGradient>
	<path fill="url(#SVGID_27_)" d="M176.964,242.831c0.045-0.533,0.521-1.231,0.37-1.738c-0.144-0.478-0.687-0.519-0.998-0.608
		c-0.556-0.16-1.106-0.455-1.719-0.438c0.626-0.383,0.862-1.629,1.587-1.795c1.103-0.253,1.634,1.412,2.292-0.241
		c0.344-0.867,0.032-1.978,0.144-2.886c0.237-1.919,1.529-3.182,2.89-4.453c2.324-2.172,4.482-3.196,7.287-4.625
		c2.829-1.44,6.839-3.251,10.773-3.311c-0.027,0.02-0.052,0.041-0.073,0.066c0.028,0.003,0.041-0.077,0.073-0.067
		c-2.639,0.762-4.521,1.713-6.877,3.197c-2.382,1.5-4.671,3.28-6.807,5.042c-2.604,2.149-5.601,7.897-2.25,10.681
		c1.412,1.172,2.919,1.361,4.49,2.329c0.416,0.257,1.577,0.624,2.013,0.771c-0.234,0.144-0.529,0.283-0.788,0.362
		c0.076,0.306,0.59,0.803,0.817,1.027c-2.379-1.15-4.594-1.843-5.501-2.198c-0.671-0.261-1.622-0.589-2.245,0.252
		c-0.583,0.789-0.44,2.31-0.442,3.343c-0.003,1.417,0.096,2.834,0.278,4.228c0.354,2.715,1.018,5.331,1.77,7.881
		c0.881,2.986,2.13,5.916,2.883,8.879C182.365,262.172,176.155,252.535,176.964,242.831z"/>
	<linearGradient id="SVGID_28_" gradientUnits="userSpaceOnUse" x1="293.5845" y1="273.9502" x2="318.3809" y2="273.9502">
		<stop  offset="0" style="stop-color:#0054A6"/>
		<stop  offset="1" style="stop-color:#44C8F5"/>
	</linearGradient>
	<path fill="url(#SVGID_28_)" d="M296.501,270.423c0.047-0.473,0.622-1.105,0.427-1.554c-0.183-0.422-0.848-0.449-1.232-0.521
		c-0.684-0.131-1.362-0.383-2.112-0.354c0.761-0.354,1.033-1.469,1.918-1.631c0.727-0.134,1.612,0.796,2.216,0.375
		c0.077-0.505-0.043-0.988-0.016-1.494c0.04-0.697,0.294-1.405,0.686-1.986c0.469-0.698,1.107-1.343,1.644-2.006
		c0.955-1.179,1.827-1.877,3.149-2.625c1.526-0.864,3.14-1.569,4.798-2.141c3.324-1.144,6.879-1.783,10.401-1.677
		c-0.014,0.156-0.083,0.532-0.133,0.723c-0.969,0.397-1.954,0.753-2.937,1.117c-2.752,1.019-5.579,2.066-7.975,3.799
		c-1.973,1.43-4.054,3.676-3.749,6.299c0.143,1.221,0.956,1.874,1.924,2.54c1.744,1.197,3.786,1.158,5.6,1.937
		c0.515,0.22,1.051,0.524,1.588,0.646c-0.285,0.134-0.646,0.264-0.961,0.339c0.098,0.271,0.734,0.703,1.018,0.897
		c-1.173,0.009-2.394-0.295-3.509-0.648c-1.102-0.349-2.279-0.398-3.397-0.697c-0.825-0.219-1.868-0.992-2.617-0.232
		c-0.704,0.715-0.505,2.067-0.494,2.986c0.016,1.263,0.158,2.521,0.401,3.76c0.473,2.412,1.327,4.726,2.285,6.981
		c1.124,2.641,2.697,5.224,3.664,7.848C303.405,287.536,295.651,279.079,296.501,270.423z"/>
	<linearGradient id="SVGID_29_" gradientUnits="userSpaceOnUse" x1="434.7207" y1="255.8569" x2="467.0273" y2="255.8569">
		<stop  offset="0" style="stop-color:#0054A6"/>
		<stop  offset="1" style="stop-color:#44C8F5"/>
	</linearGradient>
	<path fill="url(#SVGID_29_)" d="M438.383,245.466c0.312-0.401,1.193-0.644,1.273-1.16c0.074-0.485-0.51-0.89-0.814-1.174
		c-0.543-0.507-1.012-1.122-1.705-1.523c0.891,0.114,1.77-0.736,2.662-0.378c0.732,0.294,1,1.638,1.785,1.602
		c0.355-0.41,0.525-0.916,0.838-1.356c0.434-0.608,1.066-1.1,1.75-1.403c0.822-0.362,1.766-0.578,2.627-0.871
		c1.533-0.519,2.719-0.652,4.338-0.573c1.869,0.092,3.729,0.375,5.549,0.806c3.65,0.865,7.225,2.313,10.342,4.417
		c-0.104,0.134-0.381,0.433-0.535,0.579c-1.1-0.195-2.189-0.437-3.285-0.668c-3.062-0.651-6.209-1.318-9.359-1.119
		c-2.598,0.166-5.754,1.003-6.975,3.543c-0.568,1.184-0.205,2.236,0.287,3.389c0.891,2.076,2.754,3.206,3.947,4.944
		c0.338,0.491,0.65,1.071,1.064,1.486c-0.334-0.042-0.732-0.129-1.059-0.242c-0.066,0.299,0.26,1.052,0.404,1.39
		c-1.062-0.661-1.99-1.632-2.795-2.586c-0.797-0.942-1.83-1.659-2.668-2.564c-0.621-0.669-1.119-1.96-2.23-1.702
		c-1.043,0.243-1.633,1.577-2.146,2.413c-0.705,1.148-1.295,2.364-1.781,3.62c-0.947,2.445-1.498,5.02-1.92,7.6
		c-0.492,3.023-0.547,6.25-1.168,9.17C434.854,264.839,432.682,252.788,438.383,245.466z"/>
	<linearGradient id="SVGID_30_" gradientUnits="userSpaceOnUse" x1="172.3076" y1="397.8877" x2="204.1519" y2="397.8877">
		<stop  offset="0" style="stop-color:#0054A6"/>
		<stop  offset="1" style="stop-color:#44C8F5"/>
	</linearGradient>
	<path fill="url(#SVGID_30_)" d="M192.714,401.435c-0.577,0.27-1.107,0.588-1.417,0.458c-0.706-0.297-0.936-2.88-1.181-3.58
		c-0.196-0.557-0.854-1.306-0.975-1.853c-0.15-0.686,0.251-1.017,0.704-1.705c1.084-1.642,2.45-3.097,3.665-4.662
		c0.664-0.856,1.235-1.778,1.878-2.648c0.211-0.287,0.915-0.905,0.975-1.234c0.011-0.065-0.066-0.873-0.177-0.801
		c-2.002,1.321-3.46,3.545-5.348,5.067c-1.115,0.9-2.181,1.862-3.128,2.938c-1.04,1.181-0.976,1.258-2.426,1.132
		c-2.723-0.237-4.747,1.312-7.13,2.339c2.214-5.619,7.756-11.855,9.177-13.937c-1.639,0.901-3.681,2.604-5.085,4.089
		c-1.67,1.769-3.104,3.064-4.52,5.04c-1.473,2.056-2.991,3.986-4.175,6.238c-0.584,1.108-1.926,3.473-0.818,4.695
		c0.856,0.946,2.711,0.295,3.76,0.462c2.602,0.409,0.668,2.457,0.124,3.778c-0.873,2.117,0.081,3.549-0.009,5.574
		c1.009-1.688,2.912-1.931,3.731-3.868c0.254-0.601,0.25-2.51,0.914-2.73c1.874-0.622,1.417,0.747,1.838,1.354
		c1.04,1.505,2.304,1.389,3.876,0.672c4.821-2.192,9.419-5.287,12.883-9.36c1.573-1.846,2.91-3.843,4.301-5.729
		c-0.018,0.025-1.479,0.799-1.716,0.916C201.863,394.362,195.392,400.188,192.714,401.435z"/>
</g>
</svg>
